<?xml version="1.0" encoding="utf-8"?>
<!-- Generator: Adobe Illustrator 24.0.2, SVG Export Plug-In . SVG Version: 6.00 Build 0)  -->
<svg version="1.1" id="ARtwork" xmlns="http://www.w3.org/2000/svg" xmlns:xlink="http://www.w3.org/1999/xlink" x="0px" y="0px"
	 viewBox="0 0 259.6 192.6" style="enable-background:new 0 0 259.6 192.6;" xml:space="preserve">
<style type="text/css">
	.st0{fill:#FFFFFF;}
</style>
<title>VRC Change Up</title>
<path class="st0" d="M240.9,150.9H18.8c-3.8,0-6.9,3.1-6.9,6.9v16.3c0,3.5,2.8,6.4,6.3,6.4c0,0,0,0,0,0h222.8c3.5,0,6.3-2.8,6.3-6.3
	v0v-16.8C247.4,153.8,244.5,150.9,240.9,150.9L240.9,150.9z M234.3,178.6H25.5c-3.2,0-5.8-2.6-5.8-5.8v-14.6c0-3,2.4-5.3,5.3-5.4
	h209.6c2.7,0,4.8,2.2,4.8,4.8v15.7C239.6,176.2,237.2,178.5,234.3,178.6z"/>
<path class="st0" d="M12.1,98.7H25c4.6,0,5.4,1.5,5.4,4.5v1.3c0,2.3-1.3,2.9-2.9,3l0,0c2.2,0.4,2.7,1.6,2.7,3v4.1h-2v-3.5
	c0-2.5-1.2-2.8-3.2-2.8H14.3v6.3h-2.2V98.7z M24.7,106.6c2.4,0,3.4-0.7,3.4-2.3v-1.5c0-1.8-0.8-2.4-4-2.4h-9.8v6.2H24.7z"/>
<path class="st0" d="M44.8,104.5c0-4,1.4-6,5.7-6h9.2c4.3,0,5.7,1.9,5.7,6v4.4c0,4.1-1.4,6-5.7,6h-9.2c-4.3,0-5.7-1.9-5.7-6
	L44.8,104.5z M63.3,103.7c0-2.8-1.7-3.4-3.8-3.4h-8.8c-2.1,0-3.8,0.6-3.8,3.4v6c0,2.8,1.7,3.4,3.8,3.4h8.8c2.1,0,3.8-0.6,3.8-3.4
	L63.3,103.7z"/>
<path class="st0" d="M80.3,98.7H94c3.3,0,4.3,1.7,4.3,3.6v1.4c0,1.2-0.6,2.3-2.6,2.5v0.1c1.7,0.1,3.2,0.7,3.2,3.2v1.9
	c0,2.2-2,3.4-4.7,3.4H80.3V98.7z M96.1,102.1c0-1.5-1.6-1.7-2.3-1.7H82.5v5.1h11.2c1.2,0,2.4-0.4,2.4-2V102.1z M96.7,109.6
	c0-2-1.1-2.3-3.1-2.3H82.5v5.6H94c2,0,2.7-0.7,2.7-2.1L96.7,109.6z"/>
<path class="st0" d="M113.4,104.5c0-4,1.4-6,5.7-6h9.2c4.3,0,5.7,1.9,5.7,6v4.4c0,4.1-1.4,6-5.7,6h-9.2c-4.3,0-5.7-1.9-5.7-6V104.5z
	 M131.9,103.7c0-2.8-1.7-3.4-3.8-3.4h-8.8c-2.1,0-3.8,0.6-3.8,3.4v6c0,2.8,1.7,3.4,3.8,3.4h8.8c2.1,0,3.8-0.6,3.8-3.4V103.7z"/>
<path class="st0" d="M155.3,100.5h-8.1v-1.8h18.4v1.8h-8.1v14.2h-2.2L155.3,100.5z"/>
<path class="st0" d="M179.2,98.7h2.2v16h-2.2V98.7z"/>
<path class="st0" d="M196.4,104.5c0-4,1.4-6,5.7-6h8.3c3.9,0,5,1.8,5,4v1.4h-1.9v-0.7c0-2.7-1.7-2.8-3.7-2.8h-7.5
	c-2.1,0-3.8,0.6-3.8,3.4v6c0,2.8,1.7,3.4,3.8,3.4h7.6c2.9,0,3.8-0.6,3.8-2.8v-1h2v1.1c0,2.9-0.9,4.5-5.4,4.5H202
	c-4.3,0-5.7-1.9-5.7-6L196.4,104.5z"/>
<path class="st0" d="M229.9,109.7h2v1.1c0,1.6,0.8,2.3,3.5,2.3h6.7c3.1,0,4.1-0.7,4.1-3c0-2-0.8-2.5-3.5-2.5h-4.1
	c-6.6,0-8.8-0.4-8.8-4.6c0-3.7,2.2-4.5,6.6-4.5h4.7c5.4,0,6.7,1.4,6.7,4.2v0.6h-2c0-2.6-0.3-3-6-3h-2.3c-4.2,0-5.7,0.2-5.7,2.8
	c0,1.9,0.6,2.6,4,2.6h6.4c4.2,0,6,1.2,6,3.9v1c0,3.9-3.2,4.2-6.4,4.2h-6c-3.2,0-5.9-0.6-5.9-4L229.9,109.7z"/>
<path class="st0" d="M11.4,132.9c0-4.9,2.8-6.1,7.4-6.1h6c7.3,0,8.3,1.6,8.2,6.3H28v-0.5c0-1.2-0.9-1.6-2.4-1.6h-5.7
	c-2.7,0-3.2,1.3-3.2,3.4v1.8c0,2.4,0.5,3.4,2.9,3.4h5.5c2.3,0,3-0.2,3-2.3h5.2v1.6c0,2.8-1,5.1-6.2,5.1h-8.3c-4.6,0-7.4-1.2-7.4-6.1
	V132.9z"/>
<path class="st0" d="M36.2,132.9c0-4.9,2.8-6.1,7.4-6.1h8.3c4.6,0,7.4,1.2,7.4,6.1v5c0,4.9-2.8,6.1-7.4,6.1h-8.3
	c-4.6,0-7.4-1.2-7.4-6.1V132.9z M41.5,136.3c0,2.4,0.5,3.4,2.9,3.4H51c2.4,0,2.9-0.9,2.9-3.4v-1.8c0-2.1-0.5-3.4-3.2-3.4h-6
	c-2.7,0-3.2,1.3-3.2,3.4L41.5,136.3z"/>
<path class="st0" d="M62.6,127h7.9l5.8,10.8l5.8-10.8H90v16.8h-5v-12.1l0,0l-6.8,12.1h-3.9l-6.8-12.1l0,0v12.1h-5L62.6,127z"/>
<path class="st0" d="M93.7,127h14c4.9,0,6.1,2.5,6.1,5.8v1.4c0,2.5-1.1,5.4-4.7,5.4H98.8v4.2h-5.2V127z M98.8,135.4h8
	c0.9,0.1,1.6-0.6,1.7-1.5c0-0.1,0-0.2,0-0.3V133c0-1.1-0.6-1.8-2.1-1.8h-7.6V135.4z"/>
<path class="st0" d="M116.8,127h18.4v3.9h-13.2v2.7h12.5v3.5h-12.5v2.7h13.5v4h-18.7V127z"/>
<path class="st0" d="M137.5,127h19.6v4.2h-7.2v12.6h-5.1v-12.6h-7.2L137.5,127z"/>
<path class="st0" d="M159.8,127h5.2v16.8h-5.1L159.8,127z"/>
<path class="st0" d="M167.7,127h19.6v4.2h-7.2v12.6h-5.1v-12.6h-7.2V127z"/>
<path class="st0" d="M190,127h5.1v16.8H190V127z"/>
<path class="st0" d="M198.8,132.9c0-4.9,2.8-6.1,7.4-6.1h8.3c4.6,0,7.4,1.2,7.4,6.1v5c0,4.9-2.8,6.1-7.4,6.1h-8.3
	c-4.6,0-7.4-1.2-7.4-6.1V132.9z M204,136.3c0,2.4,0.5,3.4,3,3.4h6.6c2.4,0,2.9-0.9,2.9-3.4v-1.8c0-2.1-0.5-3.4-3.2-3.4h-6
	c-2.7,0-3.2,1.3-3.2,3.4L204,136.3z"/>
<path class="st0" d="M225.1,127h8l9.7,12.2l0,0V127h5.1v16.8h-8l-9.7-12.2l0,0v12.2h-5.1V127z"/>
<path class="st0" d="M226.3,42.1c-0.2,0-0.3,0.1-0.5,0.2l-20.6,14.3l-20.7-14.3c-0.1-0.1-0.3-0.2-0.5-0.2h-18.2
	c-0.4,0-0.7,0.2-0.8,0.6c0,0.1,0,0.2,0,0.3c0,0.3,0.1,0.6,0.4,0.7l29.4,19.9c-2,1.3-32,21.3-32,21.3c-0.2,0.2-0.4,0.4-0.4,0.7
	c0,0.1,0,0.2,0,0.3c0.1,0.4,0.4,0.6,0.8,0.6h18.6c0.2,0,0.4-0.1,0.5-0.2l22.8-15.8l22.6,15.8c0.1,0.1,0.3,0.2,0.5,0.2h18.3
	c0.4,0,0.7-0.2,0.8-0.6c0-0.1,0-0.2,0-0.3c0-0.3-0.1-0.6-0.4-0.7l-31.7-21.4l29.5-19.9c0.2-0.2,0.4-0.4,0.4-0.7c0-0.1,0-0.2,0-0.3
	c-0.1-0.4-0.4-0.6-0.8-0.6L226.3,42.1z"/>
<path class="st0" d="M83.5,42.1c-0.3,0-0.5,0.1-0.7,0.3L55.6,75.7L28.9,42.5c-0.2-0.2-0.4-0.3-0.7-0.3H13c-0.5,0-0.9,0.4-0.9,0.9
	c0,0.2,0.1,0.4,0.2,0.5l35.2,42.8c0.2,0.2,0.4,0.3,0.7,0.3H63c0.3,0,0.5-0.1,0.7-0.3l35.8-42.8c0.3-0.4,0.3-0.9-0.1-1.2
	c-0.2-0.1-0.4-0.2-0.6-0.2H83.5z"/>
<path class="st0" d="M107.6,42.1c-1.9-3.7-2.9-7.9-2.8-12.1c0-9.7,4.9-17.9,10.8-17.9h37.6c2,0,3.6,2.7,3.6,6s-1.6,6-3.6,6h-37.6
	c-2,0-3.5,2.7-3.5,5.8s1.4,6.1,3.5,6.1h37.6c2,0,3.6,2.7,3.6,6l0,0c0,3.3-1.6,6-3.6,6h-37.6c-2.1,0-3.5,3-3.5,6.1s1.5,5.8,3.5,5.8
	h37.6c2,0,3.6,2.7,3.6,6c0,3.3-1.6,6-3.6,6h-37.6c-5.9,0-10.8-8.2-10.8-17.9C104.7,50,105.7,45.8,107.6,42.1L107.6,42.1z"/>
<path class="st0" d="M244.5,74.4c0.5,0,1,0.1,1.4,0.4c0.5,0.2,0.8,0.6,1.1,1.1c0.3,0.4,0.4,1,0.4,1.5c0,0.5-0.1,1-0.4,1.5
	c-0.2,0.5-0.6,0.8-1,1.1c-0.4,0.3-0.9,0.4-1.5,0.4c-0.5,0-1-0.1-1.5-0.4c-0.5-0.2-0.8-0.6-1.1-1.1c-0.3-0.4-0.4-0.9-0.4-1.5
	c0-0.5,0.1-1,0.4-1.5c0.2-0.5,0.6-0.8,1.1-1.1C243.5,74.5,244,74.4,244.5,74.4z M244.5,74.8c-0.4,0-0.8,0.1-1.2,0.3
	c-0.4,0.2-0.7,0.5-0.9,0.9c-0.2,0.4-0.3,0.8-0.3,1.2c0,0.4,0.1,0.8,0.3,1.2c0.2,0.4,0.5,0.7,0.9,0.9c0.8,0.4,1.7,0.4,2.4,0
	c0.4-0.2,0.7-0.5,0.9-0.9c0.2-0.4,0.3-0.8,0.3-1.2c0-0.4-0.1-0.8-0.3-1.2c-0.2-0.4-0.5-0.7-0.9-0.9C245.3,75,244.9,74.9,244.5,74.8z
	 M243.2,78.9v-3.1h1.1c0.3,0,0.5,0,0.8,0.1c0.2,0.1,0.3,0.2,0.4,0.3c0.1,0.1,0.1,0.3,0.1,0.5c0,0.2-0.1,0.4-0.3,0.6
	c-0.2,0.2-0.4,0.3-0.6,0.3c0.1,0,0.2,0.1,0.3,0.2c0.2,0.2,0.3,0.4,0.5,0.6l0.4,0.6h-0.6l-0.3-0.5c-0.1-0.3-0.3-0.5-0.5-0.7
	c-0.1-0.1-0.3-0.1-0.4-0.1h-0.3v1.3H243.2z M243.7,77.1h0.6c0.2,0,0.4,0,0.6-0.1c0.1-0.1,0.2-0.2,0.2-0.3c0-0.1,0-0.2-0.1-0.3
	c-0.1-0.1-0.1-0.1-0.2-0.2c-0.2,0-0.3,0-0.5,0h-0.6V77.1z"/>
<path class="st0" d="M47.1,168c0,2.5-0.1,3.4-0.5,4.2c-0.7,1.5-2.1,2.2-4.8,2.4c-1.1,0.1-3.1,0.1-6.6,0.1c-5,0-6.6-0.2-8-1.1
	c-1.7-1.1-2.2-2.9-2.2-8.1c0-4.6,0.5-6.2,2.3-7.3c1.6-0.9,3.2-1.1,8.1-1.1c6.5,0,7.9,0.1,9.4,0.9c1.4,0.7,2.1,2.2,2.1,4.8v0.6h-5
	c-0.1-1.9-0.5-2.1-5.1-2.1c-4.3,0-5.1,0.1-5.7,0.7c-0.6,0.6-0.8,1.3-0.8,4.1c0,4.2,0.4,4.5,5.5,4.5c3.9,0,4.5,0,5.2-0.3
	c0.8-0.3,1-0.9,1-2.1H47.1z"/>
<path class="st0" d="M50.8,157.2H56v6.4h12v-6.4h5.3v17.3H68v-6.6H56v6.6h-5.3V157.2z"/>
<path class="st0" d="M85.8,157.2h7.1l9.5,17.3h-5.8l-1.7-3.1H83.7l-1.7,3.1h-6L85.8,157.2z M93,167.8l-3.7-6.9l-3.7,6.9H93z"/>
<path class="st0" d="M105.1,157.2h8.4l10.5,13.2l-0.1-13.2h5v17.3h-8.5L110,161.5l0.1,13.1h-5.1V157.2z"/>
<path class="st0" d="M150.1,163c0-1.4-0.6-1.9-2.2-1.9h-1.3l-1.9,0l-1.9,0c-2.5,0-2.5,0-3.1,0.2c-1,0.2-1.4,0.7-1.5,1.8
	c-0.1,0.5-0.1,2.1-0.1,3.2c0,2.3,0.2,3.3,1,3.8c0.6,0.4,1.3,0.5,2.7,0.6c0.6,0,0.6,0,3.8,0c3.5,0,4.1-0.2,4.6-1.3
	c0.1-0.2,0.1-0.4,0.1-1v-0.2V168h-6.7v-3.2h11.8v2.4c0,2.9-0.1,3.9-0.4,4.8c-0.6,1.6-1.8,2.4-4,2.6c-0.5,0.1-2.1,0.1-7.3,0.1
	c-4,0-5.5-0.1-6.6-0.3c-1.9-0.4-3-1.2-3.6-2.7c-0.5-1.2-0.6-2.4-0.6-5.6c0-3.7,0.2-5.2,0.9-6.4c0.8-1.4,2-2.1,4.2-2.4
	c1.2-0.2,3.3-0.2,6.6-0.2c4.7,0,6.2,0.1,7.3,0.3c2.7,0.7,3.5,2,3.5,5.7H150.1z"/>
<path class="st0" d="M178.2,157.2v3.9h-14v3h13.2v3.4h-13.2v3.1h14.2v3.9h-19.4v-17.3H178.2z"/>
<path class="st0" d="M193.5,157.2v7.5v1c0,1.9,0,2,0.1,2.4c0.3,1.9,1.1,2.3,5.1,2.3s5-0.1,5.7-0.6c0.5-0.4,0.8-1.1,0.8-2.5
	c0-0.4,0-0.4,0-2.3v-8h5.3v9.1c0.1,4.3-0.3,5.6-1.8,6.9c-1.2,1-2.8,1.4-5.1,1.4c-0.8,0-1.3,0-2.3,0l-2,0c-4.9,0-5.9-0.1-7.1-0.4
	c-3.1-1-4-2.6-3.9-7.7v-9.3H193.5z"/>
<path class="st0" d="M214.3,157.2h13.3c3.4,0,4.2,0.1,5.3,0.7c1.7,0.9,2.4,2.4,2.4,5.7c0,3.3-0.6,5-2,5.9c-1,0.6-2.2,0.8-5.2,0.8
	h-8.5v4.3h-5.3V157.2z M227.3,166c2.2,0,2.8-0.5,2.8-2.1c0-2.1-0.5-2.5-2.8-2.5h-7.7v4.7H227.3z"/>
</svg>
